<svg xmlns="http://www.w3.org/2000/svg" height="597" width="731">
 <g>
  <title>Labels</title>
 </g>
 <g>
  <title>Shapes</title>
  <rect fill="#ffffff" height="21.95122" id="svg_2" stroke-width="0" width="107.31707" x="10.46344" y="76.17069" />
  <rect fill="#ffffff" height="17.07317" id="svg_3" stroke-width="0" width="50" x="65.34148" y="146.9024" />
  <rect fill="#ffffff" height="51.21951" id="svg_4" stroke-width="0" width="98.78049" x="19.00002" y="265.19508" />
  <rect fill="#ffffff" height="48.78049" id="svg_5" stroke-width="0" width="101.21951" x="21.43905" y="349.34143" />
  <rect fill="#ffffff" height="23.17073" id="svg_6" stroke-width="0" width="97.56098" x="21.43905" y="426.17069" />
  <rect fill="#ffffff" height="14.63415" id="svg_7" stroke-width="0" width="89.02439" x="29.97563" y="457.87801" />
  <rect fill="#ffffff" height="21.95122" id="svg_8" stroke-width="0" width="109.7561" x="11.68295" y="526.1707" />
  <rect fill="#ffffff" height="21.95122" id="svg_9" stroke-width="0" width="43.90244" x="72.65856" y="568.85362" />
  <rect fill="#ffffff" height="29.26829" id="svg_10" stroke-width="0" width="98.78049" x="603.14637" y="545.68289" />
  <rect fill="#ffffff" height="50" id="svg_11" stroke-width="0" width="120.73171" x="599.48783" y="484.70728" />
  <rect fill="#ffffff" height="32.92683" id="svg_12" stroke-width="0" width="97.56098" x="606.8049" y="438.36582" />
  <rect fill="#ffffff" height="15.85366" id="svg_13" stroke-width="0" width="74.39024" x="606.8049" y="406.6585" />
  <rect fill="#ffffff" height="36.58537" id="svg_14" stroke-width="0" width="102.43903" x="600.70734" y="362.75606" />
  <rect fill="#ffffff" height="37.80488" id="svg_15" stroke-width="0" width="95.12195" x="603.14637" y="313.97557" />
  <rect fill="#ffffff" height="20.73171" id="svg_16" stroke-width="0" width="113.41464" x="600.70734" y="135.92679" />
  <rect fill="#ffffff" height="19.5122" id="svg_17" stroke-width="0" width="121.95122" x="600.70734" y="109.09752" />
  <rect fill="#ffffff" height="21.95122" id="svg_18" stroke-width="0" width="70.73171" x="600.70734" y="79.82923" />
  </g>
</svg>