<svg xmlns="http://www.w3.org/2000/svg" height="732.9999999999999" width="1005">
 <g>
  <title>Labels</title>
 </g>
 <g>
  <title>Shapes</title>
  <rect fill="#00bf5f" height="29.87013" id="svg_2" stroke-width="0" width="135.06494" x="93.70133" y="22.8442" />
  <rect fill="#00bf5f" height="42.85714" id="svg_3" stroke-width="0" width="138.96104" x="74.22081" y="59.20783" />
  <rect fill="#00bf5f" height="28.57143" id="svg_4" stroke-width="0" width="166.23377" x="14.48055" y="164.40264" />
  <rect fill="#00bf5f" height="27.27273" id="svg_5" stroke-width="0" width="81.81818" x="61.2338" y="203.36368" />
  <rect fill="#00bf5f" height="23.37662" id="svg_6" stroke-width="0" width="67.53247" x="48.24679" y="244.92213" />
  <rect fill="#00bf5f" height="24.67533" id="svg_7" stroke-width="0" width="68.83117" x="20.97406" y="281.28576" />
  <rect fill="#00bf5f" height="24.67533" id="svg_8" stroke-width="0" width="100" x="22.27276" y="544.92214" />
  <rect fill="#00bf5f" height="51.94805" id="svg_9" stroke-width="0" width="145.45455" x="7.98704" y="573.49357" />
  <rect fill="#00bf5f" height="14.28571" id="svg_10" stroke-width="0" width="167.53247" x="31.36367" y="630.63642" />
  <rect fill="#00bf5f" height="23.37662" id="svg_11" stroke-width="0" width="214.28572" x="17.07795" y="652.71435" />
  <rect fill="#00bf5f" height="22.07792" id="svg_12" stroke-width="0" width="223.37663" x="39.15588" y="681.28578" />
  <rect fill="#00bf5f" height="28.57143" id="svg_14" stroke-width="0" width="127.27273" x="615.77927" y="644.92214" />
  <rect fill="#00bf5f" height="37.66234" id="svg_15" stroke-width="0" width="170.12988" x="692.40265" y="543.62343" />
  <rect fill="#00bf5f" height="22.07792" id="svg_16" stroke-width="0" width="135.06494" x="753.44161" y="508.5585" />
  <rect fill="#00bf5f" height="19.48052" id="svg_17" stroke-width="0" width="179.22078" x="797.59746" y="477.38967" />
  <rect fill="#00bf5f" height="23.37662" id="svg_19" stroke-width="0" width="172.72728" x="817.07798" y="443.62343" />
  <rect fill="#00bf5f" height="42.85714" id="svg_20" stroke-width="0" width="141.55845" x="840.4546" y="390.37668" />
  <rect fill="#00bf5f" height="28.57143" id="svg_21" stroke-width="0" width="114.28572" x="830.06499" y="351.41564" />
  <rect fill="#00bf5f" height="27.27273" id="svg_22" stroke-width="0" width="142.85715" x="818.37668" y="317.6494" />
  <rect fill="#00bf5f" height="44.15585" id="svg_23" stroke-width="0" width="209.09092" x="789.80525" y="268.29875" />
  <rect fill="#00bf5f" height="28.57143" id="svg_24" stroke-width="0" width="201.29871" x="759.93512" y="231.93511" />
  <rect fill="#00bf5f" height="49.35065" id="svg_25" stroke-width="0" width="214.28572" x="684.61044" y="151.41563" />
  <rect fill="#00bf5f" height="42.85714" id="svg_26" stroke-width="0" width="209.09092" x="680.71434" y="96.87017" />
 </g>
</svg>