<svg xmlns="http://www.w3.org/2000/svg" height="1364" width="2505">
 <g>
  <title>Labels</title>
 </g>
 <g>
  <title>Shapes</title>
  <rect fill="#ffffff" height="100" id="svg_2" stroke-width="0" width="858.69562" x="1579.78244" y="25.13045" />
  <rect fill="#ffffff" height="97.82608" id="svg_3" stroke-width="0" width="891.30431" x="1571.08678" y="129.47828" />
  <rect fill="#ffffff" height="160.86956" id="svg_4" stroke-width="0" width="913.04344" x="1542.82592" y="249.04349" />
  <rect fill="#ffffff" height="54.34782" id="svg_5" stroke-width="0" width="217.3913" x="1553.69548" y="412.08696" />
  <rect fill="#ffffff" height="73.91304" id="svg_6" stroke-width="0" width="417.39129" x="1499.34766" y="501.21739" />
  <rect fill="#ffffff" height="91.30434" id="svg_7" stroke-width="0" width="891.30431" x="1510.21722" y="586" />
  <rect fill="#ffffff" height="76.08695" id="svg_8" stroke-width="0" width="332.60868" x="1523.2607" y="670.7826" />
  <rect fill="#ffffff" height="54.34782" id="svg_9" stroke-width="0" width="760.86953" x="1531.95635" y="746.86955" />
  <rect fill="#ffffff" height="52.17391" id="svg_10" stroke-width="0" width="163.04347" x="1577.60852" y="849.04346" />
  <rect fill="#ffffff" height="52.17391" id="svg_11" stroke-width="0" width="165.21738" x="1544.99983" y="918.60868" />
  <rect fill="#ffffff" height="50" id="svg_12" stroke-width="0" width="382.60868" x="1575.43461" y="992.52172" />
  <rect fill="#ffffff" height="50" id="svg_13" stroke-width="0" width="160.86956" x="1625.43461" y="1105.56519" />
  <rect fill="#ffffff" height="54.34782" id="svg_14" stroke-width="0" width="154.34782" x="1627.60852" y="1172.95649" />
  <rect fill="#ffffff" height="52.17391" id="svg_15" stroke-width="0" width="108.69565" x="1621.08678" y="1270.78258" />
  <rect fill="#ffffff" height="65.21739" id="svg_16" stroke-width="0" width="180.43477" x="681.95639" y="1212.08693" />
  <rect fill="#ffffff" height="71.73913" id="svg_17" stroke-width="0" width="356.52172" x="544.99987" y="1105.56519" />
  <rect fill="#ffffff" height="82.60869" id="svg_18" stroke-width="0" width="186.95651" x="668.91291" y="1012.08693" />
  <rect fill="#ffffff" height="65.21739" id="svg_19" stroke-width="0" width="619.56519" x="218.91293" y="955.5652" />
  <rect fill="#ffffff" height="100" id="svg_20" stroke-width="0" width="689.13041" x="92.82598" y="764.26086" />
  <rect fill="#FF0000" height="91.30434" id="question-element" stroke-width="0" width="606.52171" x="173.26076" y="659.91304" />
  <rect fill="#ffffff" height="71.73913" id="svg_22" stroke-width="0" width="641.30432" x="134.13032" y="583.82607" />
  <rect fill="#ffffff" height="71.73913" id="svg_23" stroke-width="0" width="271.73912" x="488.47813" y="505.56522" />
  <rect fill="#ffffff" height="71.73913" id="svg_24" stroke-width="0" width="182.60869" x="586.30422" y="381.65218" />
  <rect fill="#ffffff" height="86.95652" id="svg_25" stroke-width="0" width="691.30432" x="101.52163" y="283.8261" />
  <rect fill="#ffffff" height="54.34782" id="svg_26" stroke-width="0" width="123.91304" x="673.26073" y="175.13045" />
  <rect fill="#ffffff" height="76.08695" id="svg_27" stroke-width="0" width="234.7826" x="627.60856" y="1.21741" />
 </g>
</svg>