<svg xmlns="http://www.w3.org/2000/svg" height="550" width="915">
 <g>
  <title>Labels</title>
 </g>
 <g>
  <title>Shapes</title>
  <rect fill="#ffffff" height="15.30612" id="svg_2" stroke-width="0" width="89.79592" x="406.42855" y="3.06122" />
  <rect fill="#ffffff" height="18.36735" id="svg_3" stroke-width="0" width="65.30612" x="69.69386" y="53.06122" />
  <rect fill="#ffffff" height="18.36735" id="svg_4" stroke-width="0" width="105.10204" x="32.95917" y="205.10204" />
  <rect fill="#ffffff" height="16.32653" id="svg_5" stroke-width="0" width="45.91837" x="89.08162" y="232.65306" />
  <rect fill="#ffffff" height="45.91837" id="svg_6" stroke-width="0" width="127.55102" x="7.44897" y="263.2653" />
  <rect fill="#ffffff" height="15.30612" id="svg_7" stroke-width="0" width="76.53061" x="54.38774" y="322.44897" />
  <rect fill="#ffffff" height="62.2449" id="svg_8" stroke-width="0" width="100" x="31.93876" y="340.81632" />
  <rect fill="#ffffff" height="16.32653" id="svg_9" stroke-width="0" width="117.34694" x="14.59182" y="411.22448" />
  <rect fill="#ffffff" height="27.55102" id="svg_10" stroke-width="0" width="137.7551" x="2.34693" y="460.20407" />
  <rect fill="#ffffff" height="17.34694" id="svg_11" stroke-width="0" width="91.83673" x="786.02038" y="70.40816" />
  <rect fill="#ffffff" height="16.32653" id="svg_12" stroke-width="0" width="102.04081" x="786.02038" y="255.10204" />
  <rect fill="#ffffff" height="29.59184" id="svg_13" stroke-width="0" width="90.81632" x="784.99997" y="285.71428" />
  <rect fill="#ffffff" height="16.32653" id="svg_14" stroke-width="0" width="66.32653" x="782.95916" y="326.53061" />
  <rect fill="#ffffff" height="15.30612" id="svg_15" stroke-width="0" width="83.67347" x="782.95916" y="346.93877" />
  <rect fill="#ffffff" height="31.63265" id="svg_17" stroke-width="0" width="95.91837" x="783.97956" y="410.20407" />
  <rect fill="#ffffff" height="43.87755" id="svg_18" stroke-width="0" width="104.08163" x="786.02038" y="449.99999" />
 </g>
</svg>