<svg xmlns="http://www.w3.org/2000/svg" height="617" width="915">
 <g>
  <title>Labels</title>
 </g>
 <g>
  <title>Shapes</title>
  <rect fill="#ffffff" height="23.75" id="svg_2" stroke-width="0" width="106.25" x="8.75" y="79.24999" />
  <rect fill="#ffffff" height="22.5" id="svg_3" stroke-width="0" width="85" x="764.99999" y="259.24999" />
  <rect fill="#ffffff" height="21.25" id="svg_4" stroke-width="0" width="62.5" x="763.74999" y="132.99999" />
  <rect fill="#ffffff" height="37.5" id="svg_5" stroke-width="0" width="95" x="12.5" y="286.74999" />
  <rect fill="#ffffff" height="32.5" id="svg_6" stroke-width="0" width="83.75" x="23.75" y="450.49999" />
  <rect fill="#ffffff" height="47.5" id="svg_7" stroke-width="0" width="100" x="10" y="501.74999" />
  <rect fill="#ffffff" height="31.25" id="svg_8" stroke-width="0" width="81.25" x="27.5" y="179.24999" />
  <rect fill="#ffffff" height="22.5" id="svg_9" stroke-width="0" width="136.25" x="759.99999" y="41.74999" />
  <rect fill="#ffffff" height="18.75" id="svg_10" stroke-width="0" width="136.25" x="763.74999" y="160.49999" />
  <rect fill="#FF0000" height="35" id="question-element" stroke-width="0" width="95" x="766.24999" y="301.74999" />
  <rect fill="#ffffff" height="35" id="svg_12" stroke-width="0" width="96.25" x="762.49999" y="459.24999" />
  <rect fill="#ffffff" height="17.5" id="svg_13" stroke-width="0" width="52.5" x="761.24999" y="582.99998" />
  <rect fill="#ffffff" height="25" id="svg_14" stroke-width="0" width="60" x="227.5" y="566.74998" />
  <rect fill="#ffffff" height="21.25" id="svg_15" stroke-width="0" width="103.75" x="757.49999" y="79.24999" />
  <rect fill="#ffffff" height="20" id="svg_16" stroke-width="0" width="105" x="763.74999" y="180.49999" />
 </g>
</svg>