<svg xmlns="http://www.w3.org/2000/svg" height="860" width="773">
 <g>
  <title>Labels</title>
 </g>
 <g>
  <title>Shapes</title>
  <rect fill="#FF0000" height="24" id="question-element" stroke-width="0" width="158" x="44" y="124" />
  <rect fill="#00bf5f" height="28" id="svg_3" stroke-width="0" width="112" x="65" y="161" />
  <rect fill="#00bf5f" height="21" id="svg_4" stroke-width="0" width="102" x="51" y="201" />
  <rect fill="#00bf5f" height="30" id="svg_5" stroke-width="0" width="92" x="8" y="714" />
  <rect fill="#00bf5f" height="31" id="svg_6" stroke-width="0" width="85" x="50" y="753" />
  <rect fill="#00bf5f" height="31" id="svg_7" stroke-width="0" width="109" x="70" y="798" />
  <rect fill="#00bf5f" height="20" id="svg_8" stroke-width="0" width="60" x="168" y="834" />
  <rect fill="#00bf5f" height="24" id="svg_9" stroke-width="0" width="224" x="460" y="822" />
  <rect fill="#00bf5f" height="16" id="svg_10" stroke-width="0" width="126" x="542" y="771" />
  <rect fill="#00bf5f" height="32" id="svg_11" stroke-width="0" width="181" x="584" y="735" />
  <rect fill="#00bf5f" height="37" id="svg_12" stroke-width="0" width="103" x="661" y="289" />
  <rect fill="#00bf5f" height="19" id="svg_13" stroke-width="0" width="87" x="549" y="187" />
  <rect fill="#00bf5f" height="12" id="svg_14" stroke-width="0" width="97" x="554" y="208" />
  <rect fill="#00bf5f" height="15" id="svg_15" stroke-width="0" width="82" x="557" y="223" />
  <rect fill="#00bf5f" height="52" id="svg_16" stroke-width="0" width="87" x="659" y="185" />
  <rect fill="#00bf5f" height="18" id="svg_17" stroke-width="0" width="118" x="483" y="123" />
  <rect fill="#00bf5f" height="25" id="svg_18" stroke-width="0" width="132" x="464" y="85" />
  <rect fill="#00bf5f" height="19" id="svg_19" stroke-width="0" width="200" x="396" y="-1" />
  <rect fill="#00bf5f" height="21" id="svg_20" stroke-width="0" width="108" x="247" y="16" />
  <rect fill="#00bf5f" height="24" id="svg_21" stroke-width="0" width="76" x="244" y="47" />
  <rect fill="#00bf5f" height="21" id="svg_22" stroke-width="0" width="92" x="189" y="78" />
 </g>
</svg>