<svg height="575" width="661" xmlns="http://www.w3.org/2000/svg">
 <!-- Created with Image Occlusion Enhanced -->
 <g>
  <title>Labels</title>
 </g>
 <g>
  <title>Masks</title>
  <rect fill="#2bff0a" height="23.63637" id="7a9908b285334f0e9d86a06968e4b4d8-oa-1" stroke="#2D2D2D" width="121.81819" x="8.09093" y="5.90909"/>
  <rect fill="#2bff0a" height="24.54546" id="7a9908b285334f0e9d86a06968e4b4d8-oa-2" stroke="#2D2D2D" width="76.36364" x="26.27275" y="109.54546"/>
  <rect fill="#2bff0a" height="22.72727" id="7a9908b285334f0e9d86a06968e4b4d8-oa-3" stroke="#2D2D2D" width="82.72728" x="113.54549" y="189.54547"/>
  <rect fill="#2bff0a" height="24.54546" id="7a9908b285334f0e9d86a06968e4b4d8-oa-4" stroke="#2D2D2D" width="70.00001" x="550.81825" y="46.81819"/>
  <rect fill="#2bff0a" height="19.09091" id="7a9908b285334f0e9d86a06968e4b4d8-oa-5" stroke="#2D2D2D" width="108.18183" x="234.45459" y="50.45455"/>
  <rect fill="#2bff0a" height="36.36364" id="7a9908b285334f0e9d86a06968e4b4d8-oa-6" stroke="#2D2D2D" width="147.27274" x="389.00006" y="88.63637"/>
  <rect fill="#2bff0a" height="25.45455" id="7a9908b285334f0e9d86a06968e4b4d8-oa-7" stroke="#2D2D2D" width="120.00001" x="241.72732" y="292.27275"/>
  <rect fill="#2bff0a" height="19.09091" id="7a9908b285334f0e9d86a06968e4b4d8-oa-8" stroke="#2D2D2D" width="25.45455" x="386.27278" y="360.45458"/>
  <rect fill="#2bff0a" height="35.45455" id="7a9908b285334f0e9d86a06968e4b4d8-oa-9" stroke="#2D2D2D" width="99.09092" x="174.45458" y="350.45458"/>
  <rect fill="#2bff0a" height="24.54546" id="7a9908b285334f0e9d86a06968e4b4d8-oa-10" stroke="#2D2D2D" width="171.8182" x="212.6364" y="418.6364"/>
  <rect fill="#2bff0a" height="36.36364" id="7a9908b285334f0e9d86a06968e4b4d8-oa-11" stroke="#2D2D2D" width="97.27274" x="189.00004" y="474.09095"/>
  <rect fill="#2bff0a" height="21.81818" id="7a9908b285334f0e9d86a06968e4b4d8-oa-12" stroke="#2D2D2D" width="43.63637" x="316.27278" y="482.27277"/>
  <rect fill="#2bff0a" height="27.27273" id="7a9908b285334f0e9d86a06968e4b4d8-oa-13" stroke="#2D2D2D" width="123.63637" x="242.63641" y="533.18186"/>
  <rect fill="#2bff0a" height="45.45455" id="7a9908b285334f0e9d86a06968e4b4d8-oa-14" stroke="#2D2D2D" width="92.72728" x="569.90915" y="525.00005"/>
  <rect fill="#2bff0a" height="46.36364" id="7a9908b285334f0e9d86a06968e4b4d8-oa-15" stroke="#2D2D2D" stroke-dasharray="null" stroke-linecap="null" stroke-linejoin="null" width="108.18183" x="20.81821" y="522.27277"/>
 </g>
</svg>