<svg height="856" width="1289" xmlns="http://www.w3.org/2000/svg">
 <!-- Created with Image Occlusion Enhanced -->
 <g>
  <title>Labels</title>
 </g>
 <g>
  <title>Masks</title>
  <rect fill="#2bff0a" height="28.7037" id="7dae6b3cf95f41898d95ef481ef94fc9-ao-1" stroke="#2D2D2D" width="492.59257" x="164.7037" y="38.44446"/>
  <rect fill="#2bff0a" height="26.85185" id="7dae6b3cf95f41898d95ef481ef94fc9-ao-2" stroke="#2D2D2D" width="166.66666" x="333.22221" y="103.25927"/>
  <rect fill="#2bff0a" height="22.22222" id="7dae6b3cf95f41898d95ef481ef94fc9-ao-3" stroke="#2D2D2D" width="266.66666" x="107.2963" y="183.81483"/>
  <rect fill="#2bff0a" height="19.44444" id="7dae6b3cf95f41898d95ef481ef94fc9-ao-4" stroke="#2D2D2D" width="140.74074" x="98.03704" y="316.22223"/>
  <rect fill="#2bff0a" height="66.66666" id="7dae6b3cf95f41898d95ef481ef94fc9-ao-5" stroke="#2D2D2D" width="174.07407" x="45.25926" y="646.77777"/>
  <rect fill="#2bff0a" height="22.22222" id="7dae6b3cf95f41898d95ef481ef94fc9-ao-6" stroke="#2D2D2D" width="102.77777" x="131.37037" y="745.85184"/>
  <rect fill="#2bff0a" height="47.22222" id="7dae6b3cf95f41898d95ef481ef94fc9-ao-7" stroke="#2D2D2D" width="165.74073" x="360.99999" y="784.74073"/>
  <rect fill="#2bff0a" height="46.29629" id="7dae6b3cf95f41898d95ef481ef94fc9-ao-8" stroke="#2D2D2D" width="140.74074" x="568.40739" y="783.8148"/>
  <rect fill="#2bff0a" height="22.22222" id="7dae6b3cf95f41898d95ef481ef94fc9-ao-9" stroke="#2D2D2D" width="218.51851" x="926.74071" y="745.85184"/>
  <rect fill="#2bff0a" height="24.07407" id="7dae6b3cf95f41898d95ef481ef94fc9-ao-10" stroke="#2D2D2D" width="169.44444" x="983.22219" y="713.44443"/>
  <rect fill="#2bff0a" height="20.37037" id="7dae6b3cf95f41898d95ef481ef94fc9-ao-11" stroke="#2D2D2D" width="238.88888" x="1019.3333" y="684.74073"/>
  <rect fill="#2bff0a" height="21.2963" id="7dae6b3cf95f41898d95ef481ef94fc9-ao-12" stroke="#2D2D2D" width="190.74073" x="1039.70367" y="650.48147"/>
  <rect fill="#2bff0a" height="42.59259" id="7dae6b3cf95f41898d95ef481ef94fc9-ao-13" stroke="#2D2D2D" width="202.77777" x="1041.55552" y="602.33333"/>
  <rect fill="#2bff0a" height="25.92592" id="7dae6b3cf95f41898d95ef481ef94fc9-ao-14" stroke="#2D2D2D" width="120.37037" x="1037.85182" y="564.37037"/>
  <rect fill="#2bff0a" height="22.22222" id="7dae6b3cf95f41898d95ef481ef94fc9-ao-15" stroke="#2D2D2D" width="176.85184" x="1038.77774" y="532.88889"/>
  <rect fill="#2bff0a" height="24.07407" id="7dae6b3cf95f41898d95ef481ef94fc9-ao-16" stroke="#2D2D2D" width="230.55555" x="1041.55552" y="500.48148"/>
  <rect fill="#2bff0a" height="23.14815" id="7dae6b3cf95f41898d95ef481ef94fc9-ao-17" stroke="#2D2D2D" width="136.11111" x="1039.70367" y="468.07407"/>
  
  <rect fill="#2bff0a" height="21.2963" id="7dae6b3cf95f41898d95ef481ef94fc9-ao-19" stroke="#2D2D2D" width="189.81481" x="1037.85182" y="405.11111"/>
  <rect fill="#2bff0a" height="25" id="7dae6b3cf95f41898d95ef481ef94fc9-ao-20" stroke="#2D2D2D" width="226.85184" x="1040.62959" y="373.62963"/>
  <rect fill="#2bff0a" height="44.44444" id="7dae6b3cf95f41898d95ef481ef94fc9-ao-21" stroke="#2D2D2D" width="187.96296" x="1010.99996" y="317.14815"/>
  <rect fill="#2bff0a" height="45.37037" id="7dae6b3cf95f41898d95ef481ef94fc9-ao-22" stroke="#2D2D2D" width="194.44444" x="993.40737" y="265.2963"/>
  <rect fill="#2bff0a" height="25" id="7dae6b3cf95f41898d95ef481ef94fc9-ao-23" stroke="#2D2D2D" width="180.55555" x="989.70367" y="233.81482"/>
  <rect fill="#2bff0a" height="22.22222" id="7dae6b3cf95f41898d95ef481ef94fc9-ao-24" stroke="#2D2D2D" width="110.18518" x="986.92589" y="200.48149"/>
  <rect fill="#2bff0a" height="26.85185" id="7dae6b3cf95f41898d95ef481ef94fc9-ao-25" stroke="#2D2D2D" width="134.25925" x="921.18515" y="166.22223"/>
  <rect fill="#2bff0a" height="24.07407" id="7dae6b3cf95f41898d95ef481ef94fc9-ao-26" stroke="#2D2D2D" width="212.03703" x="874.88886" y="134.74075"/>
  <rect fill="#2bff0a" height="23.14815" id="7dae6b3cf95f41898d95ef481ef94fc9-ao-27" stroke="#2D2D2D" width="80.55555" x="842.48145" y="101.40742"/>
  <rect fill="#2bff0a" height="23.14815" id="7dae6b3cf95f41898d95ef481ef94fc9-ao-28" stroke="#2D2D2D" width="194.44444" x="806.37034" y="70.85187"/>
  <rect fill="#2bff0a" height="24.07407" id="7dae6b3cf95f41898d95ef481ef94fc9-ao-29" stroke="#2D2D2D" width="164.81481" x="742.48146" y="38.44446"/>
  <rect fill="#2bff0a" height="44.44444" id="7dae6b3cf95f41898d95ef481ef94fc9-ao-30" stroke="#2D2D2D" width="172.22222" x="119.33333" y="241.22223"/>
  <rect fill="#2bff0a" height="21.2963" id="7dae6b3cf95f41898d95ef481ef94fc9-ao-31" stroke="#2D2D2D" width="194.44444" x="35.07408" y="366.22223"/>
  <rect fill="#2bff0a" height="117.59259" id="7dae6b3cf95f41898d95ef481ef94fc9-ao-32" stroke="#2D2D2D" width="162.96296" x="18.40741" y="401.40741"/>
  <rect fill="#2bff0a" height="70.37037" id="7dae6b3cf95f41898d95ef481ef94fc9-ao-33" stroke="#2D2D2D" width="92.59259" x="68.40741" y="540.29629"/>
 </g>
</svg>