<svg xmlns="http://www.w3.org/2000/svg" height="1309" width="1988">
 <g>
  <title>Labels</title>
 </g>
 <g>
  <title>Shapes</title>
  <rect fill="#ffffff" height="48.57143" id="svg_2" stroke-width="0" width="245.71429" x="60.57146" y="182.42859" />
  <rect fill="#ffffff" height="48.57143" id="svg_3" stroke-width="0" width="160" x="66.28575" y="239.57145" />
  <rect fill="#ffffff" height="54.28572" id="svg_4" stroke-width="0" width="334.28572" x="66.28575" y="293.85716" />
  <rect fill="#ffffff" height="62.85714" id="svg_5" stroke-width="0" width="145.71429" x="194.85718" y="122.42859" />
  <rect fill="#ffffff" height="51.42857" id="svg_6" stroke-width="0" width="154.28572" x="186.28575" y="482.42859" />
  <rect fill="#ffffff" height="71.42857" id="svg_7" stroke-width="0" width="174.28572" x="192.00004" y="993.85717" />
  <rect fill="#ffffff" height="65.71429" id="svg_8" stroke-width="0" width="542.85715" x="57.71432" y="528.14288" />
  <rect fill="#ffffff" height="60" id="svg_9" stroke-width="0" width="322.85715" x="57.71432" y="588.14288" />
  <rect fill="#ffffff" height="62.85714" id="svg_10" stroke-width="0" width="282.85715" x="60.57146" y="642.4286" />
  <rect fill="#ffffff" height="62.85714" id="svg_11" stroke-width="0" width="194.28572" x="60.57146" y="693.85717" />
  <rect fill="#ffffff" height="57.14286" id="svg_12" stroke-width="0" width="211.42858" x="72.00004" y="753.85717" />
  <rect fill="#ffffff" height="62.85714" id="svg_13" stroke-width="0" width="262.85715" x="66.28575" y="808.14289" />
  <rect fill="#ffffff" height="45.71429" id="svg_14" stroke-width="0" width="357.14286" x="1449.14292" y="519.57145" />
  <rect fill="#FF0000" height="48.57143" id="question-element" stroke-width="0" width="360.00001" x="1449.14292" y="562.4286" />
  <rect fill="#ffffff" height="48.57143" id="svg_16" stroke-width="0" width="265.71429" x="1449.14292" y="599.57145" />
  <rect fill="#ffffff" height="48.57143" id="svg_17" stroke-width="0" width="308.57143" x="1454.8572" y="639.57145" />
  <rect fill="#ffffff" height="40" id="svg_18" stroke-width="0" width="374.28572" x="1452.00006" y="688.14288" />
  <rect fill="#ffffff" height="45.71429" id="svg_19" stroke-width="0" width="494.28572" x="1452.00006" y="722.4286" />
  <rect fill="#ffffff" height="57.14286" id="svg_20" stroke-width="0" width="200" x="60.57146" y="1053.85718" />
  <rect fill="#ffffff" height="51.42857" id="svg_21" stroke-width="0" width="208.57143" x="54.85718" y="1111.00003" />
  <rect fill="#ffffff" height="57.14286" id="svg_22" stroke-width="0" width="291.42858" x="60.57146" y="1162.42861" />
  <rect fill="#ffffff" height="68.57143" id="svg_23" stroke-width="0" width="271.42858" x="640.57147" y="1008.14289" />
  <rect fill="#ffffff" height="77.14286" id="svg_24" stroke-width="0" width="297.14286" x="506.28576" y="1219.57146" />
 </g>
</svg>