<svg height="518" width="688" xmlns="http://www.w3.org/2000/svg">
 <!-- Created with Image Occlusion Enhanced -->
 <g>
  <title>Labels</title>
 </g>
 <g>
  <title>Masks</title>
  <rect fill="#7fff00" height="19.69697" id="c09be6b8bc8741bbb1d7e32129a74fe5-ao-1" stroke="#2D2D2D" width="134.84849" x="512.00005" y="21.39393"/>
  <rect fill="#7fff00" height="18.18182" id="c09be6b8bc8741bbb1d7e32129a74fe5-ao-2" stroke="#2D2D2D" width="130.30304" x="513.5152" y="77.45454"/>
  <rect fill="#7fff00" height="19.69697" id="c09be6b8bc8741bbb1d7e32129a74fe5-ao-3" stroke="#2D2D2D" width="89.39394" x="513.5152" y="182"/>
  <rect fill="#7fff00" height="18.18182" id="c09be6b8bc8741bbb1d7e32129a74fe5-ao-4" stroke="#2D2D2D" width="172.72728" x="513.5152" y="295.63637"/>
  <rect fill="#7fff00" height="19.69697" id="c09be6b8bc8741bbb1d7e32129a74fe5-ao-5" stroke="#2D2D2D" width="131.81819" x="510.48489" y="397.15153"/>
  <rect fill="#7fff00" height="31.81818" id="c09be6b8bc8741bbb1d7e32129a74fe5-ao-6" stroke="#2D2D2D" width="160.60607" x="512.00005" y="459.27274"/>
  <rect fill="#7fff00" height="42.42424" id="c09be6b8bc8741bbb1d7e32129a74fe5-ao-7" stroke="#2D2D2D" width="146.9697" x="278.6667" y="291.09092"/>
  <rect fill="#7fff00" height="48.48485" id="c09be6b8bc8741bbb1d7e32129a74fe5-ao-8" stroke="#2D2D2D" width="118.18182" x="302.90913" y="175.9394"/>
  <rect fill="#7fff00" height="57.57576" id="c09be6b8bc8741bbb1d7e32129a74fe5-ao-9" stroke="#2D2D2D" width="112.12122" x="293.81822" y="110.78788"/>
  <rect fill="#7fff00" height="37.87879" id="c09be6b8bc8741bbb1d7e32129a74fe5-ao-10" stroke="#2D2D2D" width="131.81819" x="269.57579" y="394.12122"/>
  <rect fill="#7fff00" height="24.24243" id="c09be6b8bc8741bbb1d7e32129a74fe5-ao-11" stroke="#2D2D2D" width="140.9091" x="266.54549" y="450.18183"/>
  <rect fill="#7fff00" height="16.66667" id="c09be6b8bc8741bbb1d7e32129a74fe5-ao-12" stroke="#2D2D2D" width="112.12122" x="274.12125" y="480.48487"/>
  <rect fill="#7fff00" height="34.84849" id="c09be6b8bc8741bbb1d7e32129a74fe5-ao-13" stroke="#2D2D2D" width="128.78789" x="48.36366" y="450.18183"/>
  <rect fill="#7fff00" height="15.15152" id="c09be6b8bc8741bbb1d7e32129a74fe5-ao-14" stroke="#2D2D2D" width="112.12122" x="62.00002" y="501.69699"/>
  <rect fill="#7fff00" height="19.69697" id="c09be6b8bc8741bbb1d7e32129a74fe5-ao-15" stroke="#2D2D2D" width="174.24243" x="1.39396" y="318.36365"/>
  <rect fill="#7fff00" height="34.84849" id="c09be6b8bc8741bbb1d7e32129a74fe5-ao-16" stroke="#2D2D2D" width="151.51516" x="25.63639" y="197.15152"/>
  <rect fill="#7fff00" height="22.72727" id="c09be6b8bc8741bbb1d7e32129a74fe5-ao-17" stroke="#2D2D2D" width="87.87879" x="86.24245" y="138.06061"/>
 </g>
</svg>