<svg height="704" width="707" xmlns="http://www.w3.org/2000/svg">
 <!-- Created with Image Occlusion Enhanced -->
 <g>
  <title>Labels</title>
 </g>
 <g>
  <title>Masks</title>
  <rect fill="#2bff0a" height="16.15385" id="d7fbbf13abb64a1384c493f1b1b44236-ao-1" stroke="#2D2D2D" width="176.15385" x="161.46156" y="12.92304"/>
  <rect fill="#2bff0a" height="14.61539" id="d7fbbf13abb64a1384c493f1b1b44236-ao-2" stroke="#2D2D2D" width="49.23077" x="193.76926" y="69.07689"/>
  <rect fill="#2bff0a" height="13.84615" id="d7fbbf13abb64a1384c493f1b1b44236-ao-3" stroke="#2D2D2D" width="40.76923" x="178.38464" y="97.53843"/>
  <rect fill="#2bff0a" height="16.92308" id="d7fbbf13abb64a1384c493f1b1b44236-ao-4" stroke="#2D2D2D" width="77.69231" x="398.38465" y="40.61535"/>
  <rect fill="#2bff0a" height="16.15385" id="d7fbbf13abb64a1384c493f1b1b44236-ao-5" stroke="#2D2D2D" width="70" x="425.30773" y="71.38458"/>
  <rect fill="#2bff0a" height="33.84616" id="d7fbbf13abb64a1384c493f1b1b44236-ao-6" stroke="#2D2D2D" width="114.61539" x="543.76927" y="319.07689"/>
  <rect fill="#2bff0a" height="13.84615" id="d7fbbf13abb64a1384c493f1b1b44236-ao-7" stroke="#2D2D2D" width="87.69231" x="542.23081" y="362.92305"/>
  <rect fill="#2bff0a" height="17.69231" id="d7fbbf13abb64a1384c493f1b1b44236-ao-8" stroke="#2D2D2D" width="113.84616" x="543.00004" y="383.69228"/>
  <rect fill="#2bff0a" height="13.07692" id="d7fbbf13abb64a1384c493f1b1b44236-ao-9" stroke="#2D2D2D" width="87.69231" x="553.00004" y="412.92305"/>
  <rect fill="#2bff0a" height="15.38462" id="d7fbbf13abb64a1384c493f1b1b44236-ao-10" stroke="#2D2D2D" width="103.07693" x="551.46158" y="439.84613"/>
  <rect fill="#2bff0a" height="14.61539" id="d7fbbf13abb64a1384c493f1b1b44236-ao-11" stroke="#2D2D2D" width="106.92308" x="550.69235" y="462.92305"/>
  <rect fill="#2bff0a" height="14.61539" id="d7fbbf13abb64a1384c493f1b1b44236-ao-12" stroke="#2D2D2D" width="133.07693" x="551.46158" y="485.99998"/>
  <rect fill="#2bff0a" height="14.61539" id="d7fbbf13abb64a1384c493f1b1b44236-ao-13" stroke="#2D2D2D" width="99.23077" x="552.23081" y="524.46152"/>
  <rect fill="#2bff0a" height="14.61539" id="d7fbbf13abb64a1384c493f1b1b44236-ao-14" stroke="#2D2D2D" width="96.15385" x="554.5385" y="549.84613"/>
  <rect fill="#2bff0a" height="12.30769" id="d7fbbf13abb64a1384c493f1b1b44236-ao-15" stroke="#2D2D2D" width="56.15385" x="550.69235" y="571.3846"/>
  <rect fill="#2bff0a" height="15.38462" id="d7fbbf13abb64a1384c493f1b1b44236-ao-16" stroke="#2D2D2D" width="75.38462" x="108.38464" y="300.61536"/>
  <rect fill="#2bff0a" height="18.46154" id="d7fbbf13abb64a1384c493f1b1b44236-ao-17" stroke="#2D2D2D" width="155.38462" x="41.46156" y="324.46151"/>
  <rect fill="#2bff0a" height="14.61539" id="d7fbbf13abb64a1384c493f1b1b44236-ao-18" stroke="#2D2D2D" width="108.46154" x="53.76925" y="391.38459"/>
  <rect fill="#2bff0a" height="16.92308" id="d7fbbf13abb64a1384c493f1b1b44236-ao-19" stroke="#2D2D2D" width="106.15385" x="87.61541" y="418.30767"/>
  <rect fill="#2bff0a" height="14.61539" id="d7fbbf13abb64a1384c493f1b1b44236-ao-20" stroke="#2D2D2D" width="104.61539" x="39.15387" y="507.53844"/>
  <rect fill="#2bff0a" height="15.38462" id="d7fbbf13abb64a1384c493f1b1b44236-ao-21" stroke="#2D2D2D" width="108.46154" x="43.00002" y="531.38459"/>
  <rect class="qshape" fill="#fc000e" height="13.84615" id="d7fbbf13abb64a1384c493f1b1b44236-ao-22" stroke="#2D2D2D" width="93.84616" x="87.61541" y="555.23075"/>
  <rect fill="#2bff0a" height="15.38462" id="d7fbbf13abb64a1384c493f1b1b44236-ao-23" stroke="#2D2D2D" width="133.07693" x="48.38464" y="608.30767"/>
  <rect fill="#2bff0a" height="15.38462" id="d7fbbf13abb64a1384c493f1b1b44236-ao-24" stroke="#2D2D2D" width="114.61539" x="236.07695" y="661.3846"/>
 </g>
</svg>