<svg xmlns="http://www.w3.org/2000/svg" height="489" width="561">
 <g>
  <title>Labels</title>
 </g>
 <g>
  <title>Shapes</title>
  <rect fill="#ffffff" height="25.24272" id="svg_2" stroke-width="0" width="84.46602" x="393.36893" y="353.71844" />
  <rect fill="#ffffff" height="27.18447" id="svg_3" stroke-width="0" width="87.37864" x="392.39805" y="298.37864" />
  <rect fill="#ffffff" height="21.35922" id="svg_4" stroke-width="0" width="137.86408" x="393.36893" y="249.83495" />
  <rect fill="#ffffff" height="25.24272" id="svg_5" stroke-width="0" width="88.34952" x="392.39805" y="446.92233" />
  <rect fill="#ffffff" height="37.86408" id="svg_6" stroke-width="0" width="45.63107" x="19.58251" y="300.32038" />
  <rect fill="#ffffff" height="37.86408" id="svg_7" stroke-width="0" width="49.51456" x="16.66989" y="258.57281" />
  <rect fill="#ffffff" height="39.80583" id="svg_8" stroke-width="0" width="60.19418" x="6.96115" y="214.88349" />
  <rect fill="#ffffff" height="23.30097" id="svg_9" stroke-width="0" width="97.08738" x="394.3398" y="217.79611" />
  <rect fill="#ffffff" height="22.3301" id="svg_10" stroke-width="0" width="142.71845" x="395.31067" y="181.87378" />
  <rect fill="#ffffff" height="20.38835" id="svg_11" stroke-width="0" width="128.15534" x="393.36893" y="131.38834" />
  <rect fill="#ffffff" height="20.38835" id="svg_12" stroke-width="0" width="137.86408" x="394.3398" y="92.55339" />
  <rect fill="#ffffff" height="23.30097" id="svg_13" stroke-width="0" width="158.25243" x="393.36893" y="38.18445" />
  <rect fill="#ffffff" height="35.92233" id="svg_14" stroke-width="0" width="115.53398" x="227.3495" y="10.99999" />
  <rect fill="#ffffff" height="35.92233" id="svg_15" stroke-width="0" width="68.93204" x="149.6796" y="10.02911" />
  <rect fill="#FF0000" height="22.3301" id="question-element" stroke-width="0" width="91.26214" x="61.33008" y="44.0097" />
 </g>
</svg>