<svg xmlns="http://www.w3.org/2000/svg" height="908" width="871">
 <g>
  <title>Labels</title>
 </g>
 <g>
  <title>Shapes</title>
  <rect fill="#ffffff" height="50" id="svg_2" stroke-width="0" width="220.37037" x="377.14816" y="4.96294" />
  <rect fill="#ffffff" height="35.18519" id="svg_3" stroke-width="0" width="231.48148" x="473.44445" y="69.77775" />
  <rect fill="#ffffff" height="68.51852" id="svg_4" stroke-width="0" width="125.92593" x="734.55557" y="193.85183" />
  <rect fill="#ffffff" height="42.59259" id="svg_5" stroke-width="0" width="133.33333" x="723.44446" y="277.18516" />
  <rect fill="#ffffff" height="29.62963" id="svg_6" stroke-width="0" width="174.07408" x="695.66668" y="347.55553" />
  <rect fill="#ffffff" height="44.44444" id="svg_7" stroke-width="0" width="125.92593" x="730.85186" y="384.59257" />
  <rect fill="#ffffff" height="42.59259" id="svg_8" stroke-width="0" width="148.14815" x="717.8889" y="445.70368" />
  <rect fill="#ffffff" height="48.14815" id="svg_9" stroke-width="0" width="137.03704" x="732.70372" y="517.92591" />
  <rect fill="#ffffff" height="42.59259" id="svg_10" stroke-width="0" width="135.18519" x="732.70372" y="699.40739" />
  <rect fill="#ffffff" height="35.18519" id="svg_12" stroke-width="0" width="192.59259" x="645.66668" y="817.92591" />
  <rect fill="#ffffff" height="37.03704" id="svg_13" stroke-width="0" width="170.37037" x="56.77779" y="788.29628" />
  <rect fill="#ffffff" height="25.92593" id="svg_14" stroke-width="0" width="142.59259" x="1.22223" y="693.85183" />
  <rect fill="#ffffff" height="44.44444" id="svg_15" stroke-width="0" width="131.48148" x="1.22223" y="423.48146" />
  <rect fill="#ffffff" height="31.48148" id="svg_16" stroke-width="0" width="118.51852" x="25.2963" y="379.03702" />
  <rect fill="#ffffff" height="40.74074" id="svg_17" stroke-width="0" width="131.48148" x="43.81482" y="327.18516" />
  <rect fill="#ffffff" height="27.77778" id="svg_18" stroke-width="0" width="150" x="14.18519" y="223.48146" />
  <rect fill="#ffffff" height="29.62963" id="svg_19" stroke-width="0" width="107.40741" x="58.62964" y="254.96294" />
  <rect fill="#ffffff" height="35.18519" id="svg_20" stroke-width="0" width="157.40741" x="23.44445" y="282.74072" />
  <rect fill="#ffffff" height="33.33333" id="svg_21" stroke-width="0" width="196.2963" x="6.77778" y="106.81479" />
 </g>
</svg>