<svg xmlns="http://www.w3.org/2000/svg" height="1453.0000000000002" width="1090">
 <g>
  <title>Labels</title>
 </g>
 <g>
  <title>Shapes</title>
  <rect fill="#ffffff" height="87.17949" id="svg_2" stroke-width="0" width="239.74359" x="166.41024" y="211.10264" />
  <rect fill="#ffffff" height="89.74359" id="svg_4" stroke-width="0" width="269.23077" x="804.87177" y="320.07699" />
  <rect fill="#ffffff" height="92.30769" id="svg_5" stroke-width="0" width="197.43589" x="879.23074" y="561.10263" />
  <rect fill="#ffffff" height="53.84615" id="svg_6" stroke-width="0" width="179.48718" x="852.30766" y="721.35904" />
  <rect fill="#ffffff" height="52.5641" id="svg_7" stroke-width="0" width="141.02564" x="867.69228" y="779.05135" />
  <rect fill="#ffffff" height="56.41026" id="svg_8" stroke-width="0" width="189.74359" x="852.30766" y="850.84622" />
  <rect fill="#ffffff" height="37.17949" id="svg_9" stroke-width="0" width="147.4359" x="859.99997" y="922.64109" />
  <rect fill="#ffffff" height="78.20513" id="svg_10" stroke-width="0" width="198.71795" x="863.84613" y="973.92314" />
  <rect fill="#ffffff" height="51.28205" id="svg_11" stroke-width="0" width="138.46154" x="858.71792" y="1055.97442" />
  <rect fill="#ffffff" height="61.53846" id="svg_12" stroke-width="0" width="111.53846" x="857.43587" y="1170.07698" />
  <rect fill="#ffffff" height="42.30769" id="svg_13" stroke-width="0" width="230.76923" x="842.05125" y="1261.10262" />
  <rect fill="#ffffff" height="30.76923" id="svg_14" stroke-width="0" width="152.5641" x="826.66664" y="1304.69237" />
  <rect fill="#ffffff" height="43.58974" id="svg_15" stroke-width="0" width="170.51282" x="813.84613" y="1336.74365" />
  <rect fill="#ffffff" height="41.02564" id="svg_16" stroke-width="0" width="653.84614" x="425.38459" y="1397.00006" />
  <rect fill="#ffffff" height="48.71795" id="svg_17" stroke-width="0" width="144.87179" x="308.71793" y="1267.51288" />
  <rect fill="#FF0000" height="41.02564" id="question-element" stroke-width="0" width="129.48718" x="286.92306" y="1220.07698" />
  <rect fill="#ffffff" height="74.35897" id="svg_19" stroke-width="0" width="161.53846" x="256.15383" y="1059.82057" />
  <rect fill="#ffffff" height="96.15384" id="svg_20" stroke-width="0" width="176.92307" x="247.17947" y="929.05134" />
  <rect fill="#ffffff" height="47.4359" id="svg_21" stroke-width="0" width="82.05128" x="361.28203" y="779.05135" />
  <rect fill="#ffffff" height="52.5641" id="svg_22" stroke-width="0" width="284.61538" x="39.48716" y="1303.41031" />
  <rect fill="#ffffff" height="57.69231" id="svg_23" stroke-width="0" width="214.10256" x="68.97434" y="640.58981" />
 </g>
</svg>